<?xml version="1.0" standalone="no"?>
<!DOCTYPE svg PUBLIC "-//W3C//DTD SVG 20010904//EN"
 "http://www.w3.org/TR/2001/REC-SVG-20010904/DTD/svg10.dtd">
<svg version="1.0" xmlns="http://www.w3.org/2000/svg"
 width="16.000000pt" height="16.000000pt" viewBox="0 0 16.000000 16.000000"
 preserveAspectRatio="xMidYMid meet">
<metadata>
Created by potrace 1.11, written by Peter Selinger 2001-2013
</metadata>
<g transform="translate(0.000000,16.000000) scale(0.000613,-0.000613)"
fill="#000000" stroke="none">
<path d="M22411 24554 c-39 -27 -25 -90 52 -246 101 -205 114 -276 122 -683 5
-230 7 -266 25 -405 15 -113 18 -125 56 -255 89 -300 257 -646 734 -1510 79
-142 102 -184 183 -335 25 -47 64 -119 87 -160 94 -173 511 -1016 632 -1277
22 -48 58 -126 80 -173 22 -47 78 -173 125 -280 47 -107 92 -210 100 -228 67
-151 268 -744 363 -1072 39 -134 72 -254 74 -265 2 -11 18 -69 36 -130 17 -60
33 -117 35 -125 2 -8 18 -67 35 -130 60 -223 179 -682 186 -720 3 -14 17 -70
31 -125 14 -55 27 -113 30 -130 2 -16 15 -73 27 -125 20 -83 31 -129 42 -190
4 -23 17 -84 20 -95 14 -59 49 -277 69 -435 20 -167 23 -193 30 -275 3 -38 8
-88 10 -110 2 -22 7 -76 10 -120 3 -44 7 -105 10 -135 2 -30 7 -104 10 -165 3
-60 7 -141 10 -180 4 -65 11 -183 20 -335 4 -79 15 -236 20 -305 33 -404 22
-1338 -20 -1688 -2 -18 -6 -57 -10 -87 -3 -30 -8 -66 -10 -80 -2 -14 -11 -72
-20 -130 -9 -58 -28 -157 -41 -220 -14 -63 -29 -135 -34 -160 -5 -25 -23 -101
-40 -170 -18 -69 -33 -132 -35 -140 -11 -44 -138 -492 -170 -595 -39 -128
-314 -972 -397 -1215 -27 -80 -48 -156 -46 -170 3 -22 8 -17 44 40 23 36 75
131 116 210 133 257 221 473 313 765 25 83 55 175 65 205 33 94 171 540 215
695 49 169 107 372 120 420 7 28 22 86 34 130 44 164 103 452 117 570 3 22 7
47 9 55 3 8 7 35 10 60 3 25 7 55 9 66 3 12 9 66 16 120 6 55 13 110 15 124 2
14 7 52 10 85 4 33 8 71 10 85 2 14 7 50 10 80 8 82 20 191 30 280 2 25 7 70
10 100 3 30 8 71 10 90 15 125 32 300 40 400 3 41 8 89 10 105 2 17 7 75 10
130 3 55 8 129 10 165 26 417 26 1221 0 1605 -1 22 -5 90 -9 150 -4 61 -9 130
-11 155 -2 25 -7 79 -10 120 -3 41 -8 93 -10 115 -2 22 -6 69 -10 105 -6 65
-9 89 -20 185 -12 110 -15 132 -20 170 -3 22 -8 58 -10 80 -10 80 -25 201 -29
225 -5 25 -36 236 -41 275 -2 11 -8 49 -15 85 -7 36 -13 76 -15 90 -5 38 -34
206 -50 290 -16 81 -24 123 -30 155 -2 11 -8 45 -14 75 -6 30 -14 69 -17 85
-2 17 -7 37 -9 45 -4 12 -23 101 -60 275 -5 23 -28 128 -30 135 -1 3 -11 50
-24 105 -12 55 -27 114 -32 131 -5 17 -11 40 -13 50 -3 10 -9 39 -15 64 -7 25
-14 56 -17 70 -3 14 -9 39 -14 55 -5 17 -35 125 -66 240 -119 445 -348 1174
-414 1320 -5 11 -25 63 -45 115 -86 227 -333 753 -453 965 -16 28 -45 82 -66
120 -21 39 -89 147 -151 240 -116 174 -172 276 -160 296 5 7 44 9 116 6 l108
-5 35 34 c26 25 42 55 60 112 36 115 43 180 50 444 6 215 0 250 -67 363 -46
79 -178 216 -302 313 -90 71 -227 184 -235 192 -38 45 -384 284 -505 350 -33
18 -78 43 -100 54 -105 58 -263 118 -395 151 -137 35 -270 87 -270 106 0 5 -5
9 -12 9 -6 0 -19 7 -28 15 -9 8 -43 29 -75 45 -67 34 -137 40 -174 14z m934
-787 c99 -49 332 -215 567 -405 129 -104 247 -314 251 -447 2 -64 -35 -120
-72 -108 -59 21 -221 177 -403 388 -296 345 -438 533 -438 580 0 23 3 25 28
19 15 -4 45 -16 67 -27z"/>
<path d="M19870 24477 c-27 -14 -67 -68 -76 -103 -4 -14 6 -55 24 -101 79
-205 83 -384 17 -774 -59 -348 -54 -515 17 -699 24 -60 70 -149 100 -192 10
-14 18 -29 18 -32 0 -6 134 -209 152 -231 5 -5 59 -79 121 -163 377 -516 571
-808 1180 -1777 107 -170 247 -393 312 -495 165 -260 395 -643 395 -657 0 -2
12 -22 26 -44 40 -64 217 -421 277 -560 218 -502 387 -1005 532 -1589 31 -124
59 -234 61 -245 2 -11 13 -60 24 -110 11 -49 22 -101 24 -115 3 -14 12 -56 20
-95 22 -101 75 -390 92 -495 3 -19 7 -46 10 -60 8 -42 23 -133 29 -175 3 -22
10 -65 15 -95 5 -30 12 -77 15 -105 4 -27 8 -57 10 -65 3 -8 7 -38 10 -66 3
-28 7 -59 9 -70 2 -10 7 -44 11 -74 3 -30 8 -66 10 -80 2 -14 7 -47 10 -75 3
-27 7 -61 10 -75 2 -14 6 -47 10 -75 3 -27 10 -84 15 -125 5 -41 12 -100 15
-130 4 -30 8 -66 10 -80 2 -14 6 -50 10 -80 3 -30 8 -71 11 -91 2 -20 6 -54 9
-75 2 -21 6 -61 9 -89 3 -27 9 -75 12 -105 3 -30 7 -66 9 -80 2 -14 9 -74 15
-135 6 -60 13 -128 15 -150 3 -22 7 -67 10 -100 3 -33 7 -82 10 -110 8 -90 14
-158 21 -255 3 -52 8 -113 10 -135 19 -229 26 -958 11 -1245 -13 -238 -25
-440 -32 -520 -2 -25 -7 -88 -10 -140 -3 -52 -8 -115 -10 -140 -5 -63 -15
-191 -20 -285 -11 -167 -24 -281 -46 -415 -77 -454 -220 -897 -467 -1441 -44
-96 -89 -196 -102 -224 -30 -67 -272 -551 -308 -618 -16 -28 -50 -90 -75 -137
-25 -47 -59 -109 -76 -138 -17 -29 -31 -55 -31 -58 0 -2 -10 -21 -23 -42 -13
-20 -37 -62 -54 -92 -85 -156 -338 -562 -460 -740 -53 -77 -87 -140 -79 -147
20 -20 160 96 242 202 21 28 41 52 44 55 36 33 264 386 411 633 19 32 48 82
65 110 114 192 324 556 324 563 0 2 11 21 23 42 50 80 307 581 392 767 173
375 292 673 405 1015 56 170 151 490 165 558 3 15 11 52 31 137 3 11 7 30 9
41 48 226 54 255 76 389 23 139 27 161 34 215 3 25 8 52 10 60 2 8 7 44 10 80
4 36 8 72 10 80 2 8 6 44 9 80 4 36 9 83 12 105 6 44 9 69 19 195 4 47 8 101
10 120 2 19 7 85 10 145 4 61 8 135 10 165 11 149 18 489 18 795 0 389 -7 649
-28 1095 -3 58 -8 148 -10 200 -3 52 -7 122 -10 155 -3 33 -7 105 -10 160 -3
55 -7 127 -10 160 -2 33 -7 96 -10 140 -3 44 -8 100 -10 125 -2 25 -7 81 -10
125 -3 44 -8 96 -10 115 -3 19 -7 60 -10 90 -3 30 -8 75 -10 100 -3 25 -8 65
-10 90 -3 25 -8 63 -11 85 -10 79 -14 111 -19 155 -4 41 -9 76 -20 150 -2 14
-14 88 -25 165 -30 197 -31 205 -36 229 -5 25 -8 40 -29 166 -44 256 -134 677
-205 955 -28 110 -53 210 -55 222 -8 35 -125 446 -135 473 -5 14 -36 113 -70
220 -88 276 -244 702 -325 885 -7 17 -43 100 -80 185 -204 469 -485 1007 -874
1675 -58 98 -111 180 -167 257 -107 146 -115 180 -48 201 66 20 193 89 237
128 91 79 129 178 128 334 -1 189 -71 413 -180 573 -97 144 -352 339 -761 584
-178 106 -267 155 -580 316 -259 133 -377 199 -419 236 -13 12 -64 68 -113
126 -103 120 -149 164 -194 185 -39 18 -52 18 -84 2z m1017 -1018 c92 -41 154
-79 406 -247 305 -204 317 -217 382 -422 55 -174 64 -247 35 -300 -11 -20 -23
-24 -69 -22 -96 5 -340 251 -546 552 -32 47 -79 114 -103 150 -44 64 -129 171
-174 220 -107 115 -84 138 69 69z"/>
<path d="M15535 22540 c-48 -23 -69 -41 -116 -100 -150 -188 -188 -425 -89
-558 21 -28 75 -60 110 -65 29 -5 41 -18 34 -40 -4 -12 -8 -33 -9 -48 -5 -60
-64 -194 -130 -294 -18 -27 -70 -115 -115 -195 -201 -350 -672 -1010 -1394
-1950 -135 -176 -256 -333 -280 -365 -294 -378 -834 -1132 -891 -1244 l-17
-34 29 7 c50 13 142 95 248 221 28 33 58 69 68 80 10 11 37 45 60 75 23 30 45
57 48 60 3 3 94 122 201 265 108 143 240 314 294 380 54 66 154 190 222 275
68 85 131 164 140 175 10 11 31 38 47 60 16 22 32 42 35 45 8 7 187 240 335
435 71 94 150 197 175 230 526 685 767 1048 973 1467 37 74 67 138 67 142 0 3
11 29 25 58 14 28 25 57 25 62 0 6 7 23 15 39 37 71 155 455 150 489 -2 9 -6
34 -9 55 -11 81 -20 110 -48 170 -49 106 -121 142 -203 103z m65 -215 c29 -35
3 -128 -62 -223 -60 -89 -97 -111 -119 -71 -25 48 33 195 107 272 39 40 55 45
74 22z"/>
<path d="M8595 22234 c-56 -38 -71 -58 -131 -181 -30 -62 -92 -165 -138 -230
-221 -315 -289 -499 -281 -762 4 -146 18 -237 81 -511 8 -36 17 -76 20 -90 3
-13 14 -61 24 -106 11 -45 22 -97 25 -116 3 -18 10 -55 15 -83 5 -27 12 -65
15 -82 12 -75 16 -99 20 -113 2 -8 6 -35 9 -60 3 -25 8 -54 10 -65 2 -11 7
-42 10 -68 4 -27 9 -58 12 -70 2 -11 8 -57 14 -101 6 -45 13 -92 15 -106 2
-14 6 -44 9 -67 11 -82 16 -119 20 -138 2 -11 7 -47 10 -80 11 -98 16 -139 21
-165 2 -14 9 -63 15 -110 14 -119 19 -160 25 -200 10 -74 26 -211 30 -262 3
-29 7 -62 9 -73 2 -11 7 -54 11 -95 13 -138 14 -153 19 -189 3 -20 8 -72 11
-116 4 -44 9 -98 10 -120 2 -22 7 -80 10 -130 4 -49 8 -106 10 -125 13 -141
19 -407 19 -780 0 -441 -8 -728 -29 -1075 -3 -44 -7 -134 -10 -200 -3 -66 -8
-140 -10 -165 -2 -25 -7 -97 -10 -160 -3 -63 -8 -135 -10 -160 -2 -25 -6 -90
-10 -145 -3 -55 -8 -125 -10 -155 -2 -30 -7 -95 -10 -145 -3 -49 -8 -106 -10
-125 -2 -19 -7 -73 -10 -120 -3 -47 -8 -101 -10 -120 -2 -19 -7 -71 -10 -115
-3 -44 -8 -91 -10 -105 -2 -14 -6 -56 -10 -95 -3 -38 -10 -106 -15 -150 -5
-44 -12 -107 -15 -140 -7 -69 -14 -129 -20 -165 -2 -14 -7 -52 -10 -85 -3 -33
-8 -73 -10 -90 -3 -16 -9 -68 -15 -115 -6 -47 -13 -96 -15 -110 -2 -14 -6 -45
-10 -70 -3 -25 -8 -56 -10 -70 -2 -14 -7 -45 -10 -70 -11 -79 -16 -112 -36
-245 -11 -71 -22 -141 -24 -155 -2 -14 -11 -65 -19 -115 -9 -49 -18 -108 -22
-130 -3 -22 -17 -101 -30 -175 -14 -74 -26 -146 -29 -160 -3 -25 -59 -317 -70
-370 -8 -41 -57 -283 -61 -305 -3 -19 -7 -36 -19 -92 -3 -13 -7 -33 -10 -45
-28 -130 -48 -220 -56 -253 -5 -22 -12 -51 -15 -65 -3 -14 -11 -53 -19 -86 -8
-34 -17 -73 -19 -85 -59 -266 -156 -638 -210 -799 -87 -265 -272 -775 -322
-888 -8 -17 -20 -47 -28 -65 -8 -17 -47 -120 -86 -227 -39 -107 -75 -204 -80
-215 -5 -11 -23 -56 -40 -99 -95 -244 -284 -657 -381 -833 -16 -29 -42 -77
-58 -105 -16 -29 -45 -82 -64 -118 -19 -36 -74 -132 -122 -215 -92 -159 -186
-347 -203 -405 -17 -58 -22 -99 -13 -104 12 -8 159 98 204 147 21 23 67 85
101 137 68 103 414 676 516 855 34 61 72 126 83 145 48 84 434 789 536 980 28
52 111 217 185 365 118 237 154 313 244 515 31 71 147 366 180 460 17 47 58
164 92 260 34 96 70 198 80 225 24 64 161 457 164 470 1 6 37 116 80 245 76
232 185 595 226 760 12 47 24 92 26 100 17 65 55 220 59 242 3 16 12 58 21 95
19 80 18 77 38 173 8 41 18 91 21 110 3 19 8 46 10 60 17 85 33 174 40 230 3
25 8 52 10 60 2 8 7 44 10 80 3 36 8 72 10 80 2 8 6 42 10 75 3 33 8 71 10 85
3 23 8 62 21 170 3 25 7 57 10 71 4 26 9 70 19 154 3 22 7 57 10 78 3 20 7 56
10 80 3 23 10 74 15 112 5 39 12 95 15 125 9 79 16 141 20 170 2 14 6 59 10
100 3 41 8 86 10 100 3 14 7 63 10 110 9 144 16 243 20 280 2 19 7 78 10 130
4 52 9 102 10 111 2 9 6 58 10 109 4 51 8 102 10 112 2 10 7 63 10 118 3 54 8
112 10 128 22 179 23 839 0 1082 -2 25 -7 95 -10 155 -4 61 -8 130 -10 155 -2
25 -7 95 -10 155 -4 61 -8 133 -10 160 -2 28 -7 127 -10 220 -3 94 -8 181 -10
195 -2 14 -7 61 -11 105 -3 44 -8 87 -9 96 -2 9 -6 52 -10 95 -4 43 -9 88 -11
98 -2 10 -6 51 -9 90 -3 39 -8 94 -11 121 -3 28 -7 68 -9 90 -6 78 -17 190
-20 220 -9 72 -17 385 -11 410 7 26 7 26 32 10 69 -45 180 -156 197 -197 8
-18 19 -69 26 -113 28 -177 95 -357 144 -390 39 -25 75 -26 103 -2 28 25 30
42 22 180 -6 87 2 134 61 379 22 91 43 181 46 200 3 18 8 40 10 48 5 19 11 47
35 180 25 139 21 348 -9 465 -32 120 -84 248 -150 367 -75 135 -127 212 -313
466 -267 364 -358 511 -433 697 -15 39 -36 88 -45 110 -29 67 -115 303 -155
425 -77 234 -124 280 -220 214z m460 -1626 c26 -31 107 -150 131 -193 6 -11
38 -67 71 -125 80 -140 224 -423 218 -429 -3 -2 -13 4 -23 15 -34 37 -188 220
-227 269 -21 28 -67 79 -102 115 -91 93 -111 140 -119 273 -7 121 1 133 51 75z"/>
<path d="M20273 20401 c-23 -16 -54 -47 -69 -68 -37 -48 -30 -40 -180 -228
-246 -311 -385 -468 -638 -720 -450 -450 -801 -697 -1442 -1018 -189 -95 -550
-259 -784 -357 -69 -29 -143 -60 -165 -70 -22 -10 -96 -41 -165 -70 -69 -28
-134 -55 -145 -60 -11 -5 -46 -20 -78 -34 -31 -14 -85 -37 -120 -51 -239 -98
-474 -216 -601 -300 -248 -165 -410 -401 -452 -655 -2 -14 -9 -45 -14 -70 -5
-25 -12 -61 -15 -80 -19 -117 -56 -232 -99 -312 -63 -117 -146 -221 -223 -282
-41 -33 -86 -77 -99 -98 -60 -94 -11 -149 128 -145 72 2 83 6 224 75 242 119
334 181 604 406 85 72 160 135 166 140 6 6 32 29 59 51 27 22 68 57 92 77 75
64 304 231 403 295 180 115 546 308 805 423 28 12 75 33 105 47 30 14 147 65
260 113 113 49 318 140 455 204 179 83 251 112 253 102 4 -20 -37 -99 -112
-214 -72 -112 -126 -200 -126 -207 0 -15 -289 -447 -476 -711 -335 -474 -620
-860 -842 -1144 -277 -352 -662 -758 -962 -1015 -150 -127 -139 -119 -260
-207 -151 -109 -285 -192 -445 -273 -154 -78 -206 -100 -340 -144 -118 -39
-140 -42 -271 -47 -89 -3 -126 1 -183 17 -90 24 -191 75 -286 141 -27 19 -281
222 -285 228 -3 4 -36 33 -75 65 -149 121 -355 316 -660 625 -424 428 -508
516 -635 660 -86 98 -190 215 -253 284 -100 109 -262 267 -342 335 -16 14
-124 96 -240 183 -115 88 -217 164 -225 171 -114 91 -433 301 -587 386 -148
81 -220 113 -428 188 -82 30 -172 63 -200 73 -85 31 -114 32 -141 5 -31 -31
-31 -75 1 -143 21 -46 99 -167 116 -182 32 -27 83 -159 97 -250 13 -88 7 -319
-13 -510 -8 -68 -8 -236 -1 -300 10 -88 49 -199 92 -267 32 -50 242 -269 318
-331 150 -124 259 -209 416 -327 554 -415 793 -651 979 -969 81 -138 164 -334
187 -438 43 -201 54 -372 40 -610 -21 -346 -107 -507 -396 -739 -207 -167
-373 -274 -563 -364 -106 -50 -269 -110 -333 -121 -16 -3 -47 -9 -69 -14 -475
-106 -1115 159 -1329 551 -33 60 -80 179 -71 179 2 0 -1 15 -6 33 -16 53 -11
189 11 294 11 54 47 181 80 282 33 101 63 207 65 237 4 46 1 57 -21 83 -33 39
-45 33 -114 -55 -75 -95 -151 -257 -185 -394 -38 -150 -57 -300 -60 -460 -6
-418 120 -754 384 -1019 186 -188 379 -302 608 -360 118 -30 173 -36 333 -35
213 1 358 33 600 132 337 137 739 440 1048 790 264 301 473 658 567 972 80
267 127 380 160 380 21 0 65 -45 158 -165 75 -97 137 -160 269 -274 80 -70
277 -152 443 -186 121 -25 333 -22 460 5 22 5 54 11 71 14 17 3 71 18 120 32
49 14 109 32 134 39 205 58 545 207 760 333 270 159 829 564 1025 743 17 15
73 65 125 110 114 101 366 352 471 469 245 275 479 598 813 1125 49 77 96 151
105 165 9 14 20 33 26 42 5 9 71 120 147 245 138 231 166 278 191 323 7 14 58
104 111 200 172 306 263 477 387 730 93 188 189 389 189 395 0 2 16 39 36 82
85 183 254 589 429 1028 165 414 253 629 326 792 82 186 223 473 296 605 117
209 175 341 169 380 -7 46 -38 49 -93 9z"/>
<path d="M7115 20379 c-38 -18 -83 -103 -125 -234 -55 -170 -93 -264 -141
-352 -54 -98 -99 -154 -254 -313 -136 -140 -169 -187 -204 -291 -21 -58 -54
-189 -64 -254 -23 -139 -124 -442 -267 -800 -87 -219 -253 -534 -397 -755
-129 -197 -216 -310 -975 -1270 -128 -162 -273 -347 -323 -410 -49 -63 -92
-117 -95 -120 -3 -3 -25 -32 -50 -65 -25 -33 -47 -62 -50 -65 -8 -7 -190 -243
-295 -380 -235 -310 -547 -735 -680 -925 -151 -217 -281 -410 -381 -565 -62
-96 -118 -180 -124 -187 -5 -7 -10 -15 -10 -18 0 -4 -13 -25 -28 -48 -73 -108
-260 -428 -360 -617 -161 -305 -322 -652 -433 -934 -22 -56 -44 -110 -49 -121
-37 -78 -182 -506 -250 -740 -49 -167 -158 -595 -186 -727 -2 -13 -9 -43 -14
-68 -5 -25 -11 -54 -14 -65 -21 -92 -73 -369 -81 -435 -3 -25 -7 -52 -10 -60
-2 -8 -7 -39 -10 -69 -4 -30 -8 -61 -10 -70 -1 -9 -6 -47 -10 -84 -3 -37 -8
-76 -10 -85 -18 -97 -27 -661 -12 -812 15 -144 32 -267 52 -360 9 -41 19 -86
21 -100 3 -14 9 -41 14 -60 5 -19 11 -46 13 -60 11 -58 51 -235 83 -365 89
-360 195 -578 394 -810 49 -57 226 -231 275 -270 27 -22 59 -48 70 -58 18 -16
159 -112 255 -173 60 -38 300 -151 410 -192 58 -22 220 -78 360 -125 464 -155
647 -231 880 -365 148 -86 143 -81 368 -316 84 -88 175 -129 209 -95 32 32
-66 260 -172 399 -156 204 -315 316 -766 537 -124 61 -277 142 -340 180 -63
37 -118 70 -124 72 -5 2 -62 42 -125 89 -125 92 -376 336 -502 487 -367 440
-610 893 -762 1422 -32 111 -78 304 -90 378 -3 17 -12 73 -21 125 -9 52 -18
107 -21 123 -2 15 -6 39 -8 55 -3 15 -7 47 -11 72 -3 25 -8 56 -10 70 -2 14
-7 46 -10 72 -3 27 -7 67 -10 90 -22 186 -29 298 -29 488 0 178 7 307 24 415
18 115 21 131 45 240 14 61 27 121 30 135 21 94 141 477 170 545 8 17 26 62
40 100 15 39 33 84 40 100 7 17 27 64 45 105 101 237 314 641 488 923 48 77
96 155 107 173 73 118 330 485 458 654 251 329 579 707 982 1129 163 170 204
212 510 526 161 165 319 327 350 360 52 54 331 343 547 566 184 190 388 410
445 478 12 14 36 42 53 61 135 149 371 464 525 700 146 223 166 259 330 575
121 234 130 250 142 263 7 7 13 18 13 23 0 5 9 31 21 57 11 26 27 63 36 82
l15 35 12 -37 c13 -37 73 -149 85 -158 4 -3 61 -77 126 -164 179 -239 237
-296 360 -359 137 -71 363 -104 476 -71 177 52 262 185 296 464 4 36 8 146 8
245 -1 163 -3 190 -28 287 -72 278 -211 506 -534 874 -185 211 -256 299 -320
394 -101 150 -140 237 -202 447 -34 117 -41 156 -45 254 -4 123 -17 165 -60
201 -23 19 -51 22 -81 7z m252 -1623 c21 -24 61 -85 88 -137 35 -64 75 -119
131 -178 114 -122 286 -330 342 -414 59 -89 81 -137 88 -191 5 -36 2 -47 -19
-72 -22 -26 -32 -29 -80 -28 -73 0 -144 43 -251 150 -269 269 -451 698 -371
875 10 21 21 39 26 39 4 0 25 -20 46 -44z"/>
<path d="M11127 19179 c-15 -32 -15 -33 32 -234 25 -105 -95 -420 -193 -508
-20 -18 -21 -18 -38 3 -10 12 -18 32 -19 44 -11 263 -22 330 -66 378 -22 25
-75 23 -99 -3 -17 -19 -19 -35 -16 -138 7 -315 7 -321 -22 -436 -45 -184 -89
-294 -136 -345 -34 -37 -50 -37 -80 -5 -34 36 -47 119 -44 280 3 156 -11 236
-52 280 -30 33 -49 32 -85 -5 -29 -28 -30 -33 -28 -105 1 -41 10 -123 21 -183
10 -59 20 -123 23 -142 3 -19 15 -69 26 -110 11 -41 22 -82 24 -91 7 -32 37
-94 61 -126 46 -61 114 -79 166 -45 62 41 94 99 158 292 43 131 62 178 85 220
12 23 20 25 84 26 79 2 116 19 174 83 137 152 234 527 190 735 -25 121 -58
166 -121 166 -23 0 -33 -7 -45 -31z"/>
<path d="M14094 18650 c-98 -37 -175 -325 -141 -525 11 -69 10 -65 35 -110 58
-102 292 -195 493 -197 118 -1 144 22 188 167 43 142 56 288 37 425 -8 61 -16
70 -100 109 -182 87 -448 155 -512 131z"/>
<path d="M22058 18293 c-43 -46 -92 -131 -182 -314 -47 -96 -115 -223 -151
-283 -36 -59 -65 -112 -65 -116 0 -5 -3 -10 -7 -12 -5 -1 -26 -32 -47 -68 -41
-67 -240 -369 -298 -452 -135 -191 -411 -521 -558 -668 -122 -121 -160 -152
-604 -492 -154 -117 -320 -244 -370 -282 -590 -451 -909 -754 -1181 -1121
-272 -366 -408 -655 -479 -1015 -13 -67 -18 -97 -31 -190 -6 -43 -14 -122 -20
-195 -3 -38 -8 -97 -11 -130 -7 -71 -7 -479 0 -550 2 -27 8 -104 12 -170 9
-153 10 -173 17 -270 7 -91 15 -218 22 -350 9 -166 28 -255 54 -255 17 0 51
38 52 58 1 9 2 44 4 77 2 63 14 169 20 195 2 8 7 38 10 65 4 28 8 57 10 65 2
8 7 33 10 55 3 23 7 50 9 60 76 381 136 570 233 740 65 113 117 177 255 318
103 104 188 198 257 282 36 45 366 441 376 451 5 6 35 40 65 75 109 127 348
359 496 480 82 68 213 176 290 239 76 63 141 117 144 120 3 3 43 39 89 80 185
163 459 430 531 515 14 17 65 77 114 135 107 126 166 205 166 222 0 9 3 9 12
0 26 -26 18 -127 -27 -342 -14 -63 -27 -131 -30 -150 -3 -19 -7 -46 -10 -60
-3 -14 -7 -40 -10 -57 -6 -37 -5 -34 -39 -238 -14 -82 -28 -175 -31 -205 -3
-30 -8 -66 -10 -80 -3 -23 -8 -70 -21 -190 -5 -54 -12 -120 -18 -180 -3 -25
-8 -72 -11 -105 -3 -33 -8 -76 -10 -95 -23 -190 -37 -299 -40 -320 -2 -14 -7
-47 -10 -75 -3 -27 -8 -61 -10 -75 -3 -14 -7 -47 -11 -75 -3 -27 -8 -59 -10
-69 -2 -11 -8 -54 -14 -95 -6 -42 -12 -87 -15 -101 -2 -14 -6 -43 -10 -65 -9
-67 -55 -327 -65 -375 -5 -25 -12 -56 -14 -70 -7 -45 -35 -173 -57 -265 -11
-49 -22 -97 -24 -106 -11 -55 -86 -310 -132 -449 -50 -153 -187 -500 -254
-648 -16 -35 -29 -65 -29 -67 0 -11 -142 -294 -197 -392 -228 -409 -479 -688
-773 -859 -197 -115 -325 -147 -415 -104 -58 28 -123 101 -164 184 -50 102
-51 106 -66 341 -11 162 -43 254 -94 268 -27 7 -78 -18 -112 -55 -17 -18 -55
-75 -86 -127 -40 -68 -88 -127 -174 -217 -128 -133 -174 -196 -208 -287 -21
-58 -44 -178 -56 -292 -3 -33 -8 -73 -10 -90 -2 -16 -7 -52 -10 -80 -3 -27 -7
-61 -10 -75 -2 -14 -7 -42 -10 -62 -25 -180 -114 -442 -185 -548 -9 -14 -36
-54 -61 -90 -77 -114 -177 -216 -316 -321 -50 -38 -94 -69 -98 -69 -3 0 -25
-13 -48 -28 -88 -59 -373 -193 -438 -206 -13 -2 -31 -7 -39 -10 -9 -4 -44 -8
-80 -10 -106 -5 -195 27 -258 93 -44 46 -85 134 -98 208 -3 16 -7 36 -10 45
-3 9 -7 59 -9 110 -9 189 -30 263 -81 286 -74 34 -125 -5 -324 -243 -164 -196
-183 -256 -206 -635 -9 -151 -36 -270 -79 -340 -39 -65 -127 -159 -215 -232
-123 -102 -371 -248 -530 -312 -90 -37 -105 -40 -190 -41 -91 0 -145 23 -213
92 -121 123 -141 218 -152 748 -5 217 -8 265 -20 325 -2 14 -7 40 -10 58 -16
95 -68 150 -125 130 -33 -11 -69 -74 -95 -168 -24 -84 -55 -135 -169 -284
-107 -140 -153 -215 -189 -306 -26 -66 -82 -276 -90 -340 -22 -167 -87 -479
-118 -568 -107 -304 -343 -564 -864 -953 -180 -134 -651 -439 -679 -439 -2 0
-40 -21 -83 -46 -123 -74 -567 -296 -813 -407 -31 -14 -96 -45 -145 -68 -434
-202 -556 -250 -894 -344 -186 -53 -448 -123 -501 -135 -19 -5 -102 -24 -185
-45 -82 -20 -159 -38 -170 -40 -20 -5 -147 -31 -195 -40 -49 -10 -316 -54
-360 -60 -25 -3 -56 -8 -70 -10 -78 -11 -248 -30 -365 -40 -38 -3 -88 -8 -110
-10 -83 -9 -277 -22 -460 -31 -71 -3 -159 -7 -195 -9 -456 -23 -828 -23 -1008
0 -17 2 -62 7 -99 10 -90 7 -146 13 -180 19 -15 3 -55 8 -88 12 -33 3 -62 8
-65 9 -3 2 -29 6 -59 10 -30 4 -63 9 -75 11 -31 6 -148 26 -174 29 -13 2 -45
8 -70 14 -26 6 -85 18 -132 26 -47 9 -94 18 -105 21 -50 10 -63 13 -105 23
-25 5 -56 12 -70 15 -14 3 -34 7 -45 10 -11 2 -60 14 -110 25 -315 71 -730
210 -1070 358 -369 161 -858 420 -1170 619 -38 24 -77 48 -85 51 -8 4 -19 11
-25 15 -5 5 -71 50 -146 101 -75 50 -149 102 -165 114 -208 159 -339 263 -420
333 -115 99 -434 414 -520 514 -32 38 -64 74 -69 80 -6 6 -42 52 -81 101 -336
431 -562 867 -703 1360 -22 77 -42 151 -45 165 -2 14 -16 79 -30 145 -44 212
-75 387 -91 530 -4 28 -8 57 -10 65 -2 8 -7 49 -10 90 -4 41 -9 82 -10 92 -2
9 -7 69 -10 134 -4 65 -9 127 -11 138 -5 25 -5 574 0 631 2 22 7 83 11 135 3
52 8 109 10 125 2 17 7 53 10 80 7 56 31 214 40 260 44 224 165 593 276 842
12 26 28 64 37 83 8 19 35 78 59 130 25 52 52 111 60 130 9 19 80 166 159 325
172 351 280 547 650 1182 41 70 283 491 312 543 273 488 477 932 608 1327 37
112 109 372 128 464 19 89 56 294 60 332 3 25 8 61 10 79 3 18 7 53 10 78 26
204 26 543 0 738 -5 39 -35 185 -49 236 -33 129 -125 322 -195 410 -105 132
-276 234 -448 267 -60 11 -285 8 -357 -5 -134 -26 -185 -68 -177 -146 3 -29
77 -59 187 -77 115 -18 294 -95 407 -176 273 -196 417 -503 412 -876 -4 -312
-108 -765 -279 -1221 -25 -69 -52 -138 -59 -155 -7 -16 -21 -50 -32 -75 -10
-25 -35 -83 -57 -130 -21 -47 -48 -107 -60 -135 -49 -114 -309 -617 -333 -646
-8 -8 -14 -19 -14 -24 0 -12 -157 -273 -363 -605 -399 -641 -471 -766 -697
-1225 -265 -538 -391 -827 -494 -1137 -77 -230 -142 -509 -171 -728 -3 -25 -8
-56 -10 -70 -3 -14 -7 -51 -10 -83 -4 -32 -8 -66 -10 -75 -5 -26 -18 -171 -32
-342 -16 -191 -8 -886 11 -986 2 -10 7 -50 11 -87 3 -37 8 -76 10 -85 1 -9 6
-42 10 -72 22 -169 85 -466 155 -725 47 -175 172 -551 200 -597 5 -10 10 -22
10 -28 0 -19 122 -296 192 -435 92 -184 123 -239 244 -435 360 -585 556 -864
789 -1120 72 -80 396 -403 481 -480 130 -118 331 -285 428 -355 15 -11 51 -37
79 -59 99 -74 422 -284 569 -369 206 -120 429 -234 700 -356 164 -74 622 -245
715 -266 10 -2 56 -16 102 -29 167 -51 435 -104 656 -131 28 -3 75 -10 105
-15 30 -5 78 -12 105 -15 93 -12 112 -15 206 -29 52 -8 114 -18 139 -21 25 -3
56 -8 70 -10 14 -2 54 -6 90 -10 36 -3 85 -8 110 -10 80 -9 143 -14 245 -20
55 -3 116 -8 135 -10 32 -4 109 -8 378 -21 48 -3 218 -6 378 -7 374 -3 375 -4
319 -154 -27 -71 -27 -89 0 -166 24 -67 15 -104 -46 -191 -66 -96 -71 -133
-27 -225 41 -86 163 -208 286 -287 52 -32 128 -84 170 -115 101 -74 132 -89
185 -89 54 0 112 36 200 122 126 124 228 265 249 343 17 61 2 111 -65 222 -66
109 -140 255 -157 307 -31 97 -16 161 45 190 55 26 66 28 285 31 113 1 248 6
300 9 192 13 236 17 270 21 19 2 71 7 115 10 44 4 87 9 95 10 8 1 49 6 90 10
41 4 84 9 95 11 11 2 40 7 65 10 25 3 52 7 60 9 8 2 40 7 70 10 30 3 62 8 70
10 8 2 31 7 50 10 19 3 49 8 65 11 17 3 84 16 150 30 66 14 130 27 143 30 168
34 623 179 777 248 17 8 71 31 120 52 94 39 432 207 545 270 416 233 920 587
1215 853 59 54 356 351 401 401 24 28 92 112 212 265 5 6 40 57 79 115 145
216 249 418 320 624 25 72 61 164 79 205 43 94 49 89 99 -74 49 -161 75 -206
134 -238 105 -58 211 -64 376 -24 31 8 189 69 200 77 6 5 42 25 80 45 390 207
760 545 973 890 63 103 143 256 166 320 36 97 55 99 116 9 111 -164 240 -233
434 -231 247 1 578 137 795 325 97 83 158 127 195 142 34 13 33 6 -9 -38 -45
-47 -89 -139 -104 -217 -7 -33 -30 -134 -53 -224 -35 -140 -40 -174 -36 -241
4 -68 9 -83 37 -121 50 -69 130 -113 241 -135 57 -12 200 -45 274 -64 93 -23
189 -26 238 -6 78 33 111 92 138 246 7 36 18 92 25 125 8 33 17 85 21 115 3
30 8 71 11 90 3 19 6 114 8 210 6 276 -2 289 -225 361 -140 45 -219 79 -268
116 l-34 25 44 47 c285 299 445 588 518 931 57 272 86 385 129 493 15 40 36
25 101 -70 67 -100 105 -135 194 -178 110 -55 228 -70 382 -51 105 12 258 61
344 109 19 11 55 31 79 45 207 116 483 371 679 627 109 143 220 309 358 540
86 142 112 187 164 280 12 22 42 74 65 115 47 83 219 424 258 510 13 30 34 77
47 105 167 370 323 873 384 1240 9 53 25 159 31 205 3 25 7 56 10 70 2 14 7
61 11 105 3 44 8 94 9 110 2 17 6 68 9 115 4 47 9 108 11 135 6 71 17 221 20
285 3 59 13 244 21 375 9 158 24 584 39 1085 4 118 9 280 11 360 3 80 7 478 9
885 5 1083 16 1334 74 1775 21 157 17 140 80 380 32 123 40 220 19 220 -8 0
-26 -12 -40 -27z m-3648 -8468 c26 -32 8 -201 -44 -406 -34 -132 -99 -292
-128 -317 -26 -21 -32 3 -31 123 2 167 49 413 99 519 41 87 76 115 104 81z
m-2374 -1690 c12 -47 -50 -292 -82 -325 -12 -12 -14 -11 -15 10 -1 44 2 161 5
178 14 77 18 94 29 114 22 41 28 48 42 48 8 0 17 -11 21 -25z m-1860 -479 c5
-13 8 -56 5 -87 0 -9 -49 -72 -107 -140 -58 -68 -118 -144 -132 -169 -34 -57
-40 -33 -12 42 24 65 95 186 172 293 54 77 65 85 74 61z m3972 -978 c6 -6 12
-16 12 -23 0 -29 -55 -21 -93 13 -18 16 -18 17 5 23 25 7 56 2 76 -13z m-9814
-4573 c20 -30 20 -74 0 -100 -14 -19 -15 -19 -39 9 -27 32 -30 51 -15 90 12
33 33 33 54 1z"/>
<path d="M5603 12300 c-13 -12 -25 -39 -29 -66 -6 -42 1 -227 10 -279 5 -27
20 -189 18 -196 -6 -27 -14 -160 -13 -228 1 -91 16 -131 51 -131 26 0 58 44
75 104 39 136 41 534 4 705 -22 99 -69 136 -116 91z"/>
<path d="M5422 12280 c-36 -15 -45 -54 -36 -165 14 -177 9 -395 -9 -437 -25
-56 -33 -52 -27 14 14 147 -10 296 -54 341 -25 25 -78 22 -103 -5 -31 -36 -35
-54 -39 -193 -4 -138 -15 -189 -45 -218 -19 -17 -19 -17 -29 8 -6 15 -10 72
-10 129 0 120 -18 191 -59 235 -77 83 -159 -10 -203 -232 -23 -114 -33 -139
-74 -181 -57 -56 -99 -70 -214 -70 -85 -1 -175 7 -175 14 0 13 -181 19 -222 8
-115 -30 -62 -95 131 -160 82 -28 104 -31 216 -32 148 -1 188 8 323 77 89 46
100 49 122 37 39 -21 65 -49 65 -71 0 -26 40 -43 82 -35 18 4 53 24 78 46 24
22 48 40 52 40 4 0 15 -16 24 -35 20 -42 58 -65 97 -58 83 16 188 203 213 378
3 28 8 59 10 70 5 26 5 241 0 280 -2 17 -7 57 -11 90 -8 68 -26 110 -54 125
-22 11 -19 11 -49 0z"/>
<path d="M6013 12172 c-34 -21 -40 -78 -58 -507 -8 -208 -16 -250 -58 -325
-39 -69 -231 -260 -261 -260 -26 0 -54 42 -85 128 -35 95 -76 114 -132 64 -45
-40 -48 -92 -14 -223 33 -127 30 -175 -19 -275 -116 -233 -424 -489 -705 -584
-231 -77 -416 -21 -465 143 -47 158 56 397 204 471 25 13 82 35 128 51 128 42
194 119 125 146 -57 22 -189 5 -280 -37 -109 -50 -222 -173 -283 -307 -105
-235 -54 -479 128 -604 87 -60 150 -76 270 -70 106 5 127 8 216 38 235 78 494
265 722 521 l42 46 8 -46 c4 -26 9 -54 11 -62 10 -44 9 -238 -2 -297 -33 -170
-139 -301 -250 -308 -16 -1 -35 -3 -41 -4 -6 0 -46 -24 -88 -51 -180 -117
-576 -293 -716 -317 -37 -6 -144 -6 -170 0 -66 17 -140 59 -177 102 -37 42
-83 133 -83 163 0 10 -7 42 -15 70 -13 42 -21 53 -42 58 -21 6 -31 2 -46 -17
-16 -20 -18 -33 -13 -88 9 -93 60 -237 102 -288 104 -127 204 -179 356 -187
157 -8 388 59 628 182 121 62 152 64 226 10 80 -57 148 -23 215 106 42 79 147
229 208 294 27 29 34 32 48 21 17 -15 44 -72 75 -164 47 -138 115 -222 217
-272 175 -86 484 -1 722 200 80 67 134 94 209 103 119 14 194 92 218 224 13
72 8 170 -12 207 -16 32 -58 55 -90 49 -20 -3 -26 -10 -44 -57 -12 -30 -44
-38 -172 -45 -67 -4 -78 -7 -101 -33 -16 -18 -30 -46 -34 -72 -20 -133 -24
-145 -78 -201 -107 -113 -279 -199 -425 -213 -136 -14 -215 46 -285 215 -61
147 -86 223 -91 274 -4 33 -3 33 71 57 70 22 123 61 123 90 0 5 16 43 36 85
25 53 40 74 51 72 9 -2 17 -10 19 -18 28 -137 76 -200 154 -200 40 0 68 14
105 55 37 39 63 54 92 49 12 -2 77 9 145 25 68 16 141 32 163 36 107 18 225
71 295 132 25 22 101 81 170 131 197 143 249 205 235 278 -9 50 -33 63 -100
51 -63 -12 -69 -8 -105 73 -12 24 -26 48 -33 52 -19 12 -66 9 -95 -6 -62 -32
-79 -80 -62 -175 5 -34 12 -72 14 -84 2 -13 -3 -38 -11 -55 -26 -54 -196 -172
-248 -172 -48 0 -56 18 -60 135 -5 187 -48 295 -115 295 -54 0 -64 -27 -67
-183 -4 -242 -10 -267 -63 -267 -23 0 -31 7 -44 40 -9 22 -16 46 -16 54 0 23
-37 49 -62 42 -41 -11 -48 -21 -74 -117 -42 -157 -60 -156 -114 6 -49 147 -87
210 -133 220 -61 14 -119 -57 -152 -184 -31 -124 -58 -175 -101 -196 -19 -9
-39 -13 -44 -10 -17 11 -40 63 -51 118 -20 99 -22 112 -23 178 -1 85 17 117
109 194 39 33 89 84 111 113 45 61 79 83 110 72 30 -12 60 -65 75 -133 8 -40
19 -62 33 -69 34 -18 95 -10 164 22 35 17 100 44 144 60 137 50 282 142 396
252 123 118 159 223 110 318 -29 56 -58 72 -121 67 -106 -9 -229 -133 -286
-286 -50 -135 -104 -174 -149 -107 -31 45 -68 52 -90 17 -9 -14 -20 -28 -24
-31 -4 -3 -14 -26 -23 -50 -26 -73 -63 -101 -84 -62 -10 19 -8 295 4 527 13
259 8 396 -20 460 -20 50 -70 78 -102 57z m747 -699 c0 -9 -110 -127 -110
-119 0 32 71 126 96 126 8 0 14 -3 14 -7z"/>
<path d="M7231 10459 c-78 -30 -114 -167 -74 -289 10 -30 34 -72 58 -98 37
-42 42 -52 39 -92 -5 -87 -73 -226 -172 -350 -96 -121 -114 -172 -70 -201 41
-27 162 85 271 249 80 120 99 159 126 267 29 116 31 131 36 230 5 99 -11 180
-46 224 -41 52 -117 79 -168 60z"/>
<path d="M6406 10185 c-70 -18 -110 -61 -110 -118 0 -93 65 -128 165 -89 42
17 97 70 104 102 6 29 -14 82 -36 96 -27 16 -78 20 -123 9z"/>
<path d="M15713 6112 c-40 -6 -102 -83 -156 -190 -32 -64 -60 -107 -72 -112
-12 -4 -37 0 -65 12 -54 23 -74 19 -126 -29 -74 -68 -109 -132 -231 -413 -51
-119 -58 -143 -58 -200 0 -120 52 -183 241 -298 176 -106 248 -135 329 -134
58 0 70 3 110 24 68 36 142 138 175 241 27 82 51 100 120 87 25 -5 56 -13 70
-18 14 -5 48 -13 77 -17 67 -9 120 14 188 81 74 74 88 94 150 219 119 239 93
381 -96 523 -101 76 -164 102 -259 107 -101 6 -131 15 -219 65 -85 48 -128 61
-178 52z m493 -638 c-34 -104 -76 -142 -96 -88 -12 32 13 97 55 138 24 24 29
26 42 13 14 -13 13 -21 -1 -63z m-591 -291 c-4 -21 -8 -45 -9 -53 -7 -43 -19
-80 -26 -80 -15 0 -40 43 -40 68 0 40 40 102 67 102 11 0 13 -9 8 -37z"/>
</g>
</svg>
